<svg xmlns="http://www.w3.org/2000/svg" viewBox="0 0 512 512" width="512" height="512">
  <defs>
    <linearGradient id="shieldGrad" x1="0" y1="0" x2="0" y2="1">
      <stop offset="0%" stop-color="#34d399"/>
      <stop offset="100%" stop-color="#059669"/>
    </linearGradient>
  </defs>
  <!-- Shield shape -->
  <path d="
    M 256 42
    L 432 110
    C 432 110 442 280 356 388
    C 310 442 256 470 256 470
    C 256 470 202 442 156 388
    C 70 280 80 110 80 110
    Z
  " fill="url(#shieldGrad)" stroke="none"/>
  <!-- Inner shield border highlight -->
  <path d="
    M 256 70
    L 410 130
    C 410 130 419 280 342 376
    C 300 424 256 448 256 448
    C 256 448 212 424 170 376
    C 93 280 102 130 102 130
    Z
  " fill="none" stroke="#a7f3d0" stroke-width="3" opacity="0.5"/>
  <!-- Keyhole circle -->
  <circle cx="256" cy="220" r="56" fill="#022c22"/>
  <!-- Keyhole slot (rectangle below circle) -->
  <rect x="238" y="260" width="36" height="80" rx="8" fill="#022c22"/>
  <!-- Keyhole inner highlight -->
  <circle cx="256" cy="220" r="28" fill="none" stroke="#10b981" stroke-width="3" opacity="0.6"/>
</svg>
